<svg width="203" height="30" viewBox="0 0 203 30" fill="none" xmlns="http://www.w3.org/2000/svg">
<path d="M15.0067 0C23.261 0 30 6.73903 30 14.9933C30 23.261 23.2477 30.0133 14.9801 30C6.71246 29.9867 -0.0132723 23.2344 1.96677e-05 14.9801C0.0133116 6.72574 6.75234 0 15.0067 0ZM15.0997 11.6039C15.0067 11.6836 14.9269 11.7368 14.8604 11.8033C11.3248 15.0465 7.80241 18.303 4.26674 21.5463C4.05407 21.7324 4.05407 21.8653 4.20028 22.0913C6.89855 26.3447 12.0425 28.6841 17.0137 27.8467C20.8152 27.2087 23.7661 25.2282 25.8795 21.9982C26.039 21.759 26.0124 21.626 25.7997 21.4267C22.3172 18.2366 18.848 15.0332 15.3788 11.8299C15.2858 11.7634 15.1927 11.6969 15.0997 11.6039ZM27.5809 17.4922C28.3252 14.2357 27.5676 8.83916 23.0084 5.15729C18.5822 1.59504 12.1755 1.42224 7.52327 4.78511C2.685 8.2809 1.59506 13.8768 2.45903 17.6384C2.55208 17.5587 2.63183 17.4922 2.71158 17.4258C6.56625 13.8768 10.4342 10.3146 14.2889 6.76561C14.8471 6.24723 15.3124 6.24723 15.8706 6.75232C17.0004 7.7891 18.117 8.81258 19.2335 9.84935C19.3133 9.9291 19.4063 9.99556 19.5525 10.1152C19.5525 8.90562 19.5525 7.78909 19.5525 6.63269C19.6854 6.6194 19.7918 6.6194 19.8981 6.6194C20.7355 6.6194 21.5729 6.63269 22.397 6.60611C22.716 6.59282 22.7825 6.71245 22.7825 7.00487C22.7692 8.91891 22.7825 10.8197 22.7692 12.7337C22.7692 13.0128 22.8489 13.1989 23.0616 13.385C24.4705 14.6743 25.8795 15.9637 27.2884 17.2663C27.3815 17.3194 27.4612 17.3859 27.5809 17.4922Z" fill="white"/>
<path d="M14.2492 17.2148C14.2492 18.1187 14.2492 19.0093 14.2492 19.9131C13.3054 19.9131 12.375 19.9131 11.418 19.9131C11.418 19.0226 11.418 18.132 11.418 17.2148C12.3484 17.2148 13.2788 17.2148 14.2492 17.2148Z" fill="white"/>
<path d="M18.6066 17.2266C18.6066 18.1171 18.6066 19.0077 18.6066 19.9115C17.6628 19.9115 16.7324 19.9115 15.7754 19.9115C15.7754 19.021 15.7754 18.1304 15.7754 17.2266C16.7058 17.2266 17.6496 17.2266 18.6066 17.2266Z" fill="white"/>
<path d="M11.418 21.4258C12.3617 21.4258 13.2921 21.4258 14.2359 21.4258C14.2359 22.3163 14.2359 23.1936 14.2359 24.1108C13.3054 24.1108 12.375 24.1108 11.418 24.1108C11.418 23.2335 11.418 22.3562 11.418 21.4258Z" fill="white"/>
<path d="M18.6066 21.4414C18.6066 22.332 18.6066 23.2225 18.6066 24.1264C17.6628 24.1264 16.7191 24.1264 15.7754 24.1264C15.7754 23.2225 15.7754 22.3453 15.7754 21.4414C16.7058 21.4414 17.6363 21.4414 18.6066 21.4414Z" fill="white"/>
<path d="M54.5814 13.2261L49.2447 21.3652C49.0658 21.6634 48.7975 21.7826 48.4696 21.7826H45.1006C44.564 21.7826 44.3851 21.4547 44.6832 21.0075L48.1118 15.9988C44.4447 15.7006 42 13.1068 42 9.52919C42 5.71304 44.7727 3.02982 48.8273 3.02982C52.9118 3.02982 55.6547 5.71304 55.6547 9.52919C55.6547 10.9304 55.2671 12.2124 54.5814 13.2261ZM48.8273 6.96521C47.4261 6.96521 46.2037 7.91925 46.2037 9.49938C46.2037 11.1093 47.4261 12.0335 48.8273 12.0335C50.2584 12.0335 51.4509 11.1093 51.4509 9.49938C51.4509 7.88944 50.2584 6.96521 48.8273 6.96521ZM69.041 13.2261L63.7043 21.3354C63.5255 21.6335 63.2571 21.7528 62.9292 21.7528H59.5602C59.0236 21.7528 58.8447 21.4248 59.1429 20.9776L62.5714 15.9689C58.9043 15.6708 56.4596 13.077 56.4596 9.49938C56.4596 5.68323 59.2323 3 63.287 3C67.3714 3 70.1143 5.68323 70.1143 9.49938C70.1143 10.9304 69.7267 12.2124 69.041 13.2261ZM63.287 6.96521C61.8857 6.96521 60.6634 7.91925 60.6634 9.49938C60.6634 11.1093 61.8857 12.0335 63.287 12.0335C64.718 12.0335 65.9106 11.1093 65.9106 9.49938C65.9106 7.88944 64.718 6.96521 63.287 6.96521ZM85.6174 21.7826H82.3975C82.0397 21.7826 81.7714 21.6335 81.6522 21.2162L80.9665 18.8907H74.5267L73.841 21.2162C73.7217 21.6037 73.4832 21.7826 73.0956 21.7826H69.8758C69.3988 21.7826 69.1602 21.5143 69.3093 21.0373L74.8845 3.92423C75.0037 3.56646 75.272 3.35777 75.6596 3.35777H79.8633C80.2211 3.35777 80.5192 3.53665 80.6385 3.92423L86.2137 21.0373C86.3329 21.5143 86.0944 21.7826 85.6174 21.7826ZM77.7466 7.97889L75.6894 14.9553H79.8037L77.7466 7.97889ZM95.4559 22.1404C93.6969 22.1404 92.4149 21.5441 91.5503 20.5304V26.3441C91.5503 26.7615 91.3118 27 90.8944 27H88.2708C87.8534 27 87.6149 26.7615 87.6149 26.3441V9.26087C87.6149 8.84348 87.8534 8.60497 88.2708 8.60497H90.8944C91.3118 8.60497 91.5503 8.84348 91.5503 9.26087V9.82733C92.4149 8.81366 93.6969 8.21739 95.4559 8.21739C98.8845 8.21739 101.747 11.2286 101.747 15.164C101.717 19.1292 98.8845 22.1404 95.4559 22.1404ZM94.6509 12.0037C92.8323 12.0037 91.5205 13.2261 91.5205 15.2236C91.5205 17.1913 92.8323 18.4435 94.6509 18.4435C96.4696 18.4435 97.7814 17.2211 97.7814 15.2236C97.7814 13.2559 96.4696 12.0037 94.6509 12.0037ZM113.672 21.7826H111.138C110.72 21.7826 110.482 21.5441 110.482 21.1267V20.7391C109.766 21.5739 108.753 22.1404 107.083 22.1404C104.758 22.1404 102.76 20.7689 102.76 18.0559C102.76 15.313 104.788 13.9714 107.083 13.9714C108.723 13.9714 109.766 14.4485 110.482 14.9851V13.7926C110.482 12.5106 109.945 11.9143 108.842 11.9143C108.037 11.9143 107.53 12.2422 107.322 12.6894C107.173 13.0472 107.024 13.2559 106.636 13.2559H104.072C103.655 13.2559 103.386 13.0174 103.416 12.5702C103.744 9.73789 106.189 8.27702 108.842 8.27702C111.734 8.27702 114.298 9.94659 114.298 13.4944V21.1267C114.328 21.5441 114.089 21.7826 113.672 21.7826ZM108.484 16.7441C107.262 16.7441 106.696 17.3106 106.696 18.0559C106.696 18.8311 107.262 19.3677 108.484 19.3677C109.766 19.3677 110.482 18.8012 110.482 18.0559C110.482 17.2509 109.796 16.7441 108.484 16.7441ZM123.451 12.8087C121.99 12.7491 120.559 13.4944 120.559 15.5814V21.1267C120.559 21.5441 120.32 21.7826 119.903 21.7826H117.279C116.862 21.7826 116.624 21.5441 116.624 21.1267V9.29069C116.624 8.87329 116.862 8.63478 117.279 8.63478H119.903C120.32 8.63478 120.559 8.87329 120.559 9.29069V10.7217C120.947 9.40994 121.99 8.63479 123.302 8.42609C123.749 8.33665 123.988 8.63478 123.988 9.05217V12.1528C123.958 12.6 123.779 12.8087 123.451 12.8087ZM132.365 12.4211H130.934V21.1267C130.934 21.5441 130.696 21.7826 130.278 21.7826H127.655C127.237 21.7826 126.999 21.5441 126.999 21.1267V12.4211H125.568C125.15 12.4211 124.912 12.1826 124.912 11.7652V9.29069C124.912 8.87329 125.15 8.63478 125.568 8.63478H126.999V5.08696C126.999 4.66957 127.237 4.43105 127.655 4.43105H130.278C130.696 4.43105 130.934 4.66957 130.934 5.08696V8.63478H132.365C132.783 8.63478 133.021 8.87329 133.021 9.29069V11.7652C133.021 12.1826 132.783 12.4211 132.365 12.4211ZM151.565 21.7826H148.942C148.524 21.7826 148.286 21.5441 148.286 21.1267V13.2857C148.286 12.2422 147.66 11.9143 146.914 11.9143C146.139 11.9143 145.394 12.3019 145.394 13.5839V21.1267C145.394 21.5441 145.155 21.7826 144.738 21.7826H142.114C141.697 21.7826 141.458 21.5441 141.458 21.1267V13.2857C141.458 12.2422 140.832 11.9143 140.087 11.9143C139.312 11.9143 138.566 12.3019 138.566 13.5839V21.1267C138.566 21.5441 138.328 21.7826 137.911 21.7826H135.287C134.87 21.7826 134.631 21.5441 134.631 21.1267V9.29069C134.631 8.87329 134.87 8.63478 135.287 8.63478H137.911C138.328 8.63478 138.566 8.87329 138.566 9.29069V9.82733C139.163 8.9031 140.206 8.27702 141.578 8.27702C142.919 8.27702 143.963 8.81366 144.619 9.82733C145.483 8.9031 146.557 8.27702 148.137 8.27702C150.701 8.27702 152.221 9.91677 152.221 12.9279V21.1267C152.221 21.5441 151.983 21.7826 151.565 21.7826ZM167.456 16.1776C167.396 16.595 167.128 16.7739 166.74 16.7739H163.52H157.945C158.422 18.3242 159.645 18.9503 161.016 18.9503C161.761 18.9503 162.477 18.682 162.954 18.2944C163.222 18.0857 163.431 17.9665 163.759 17.9665L166.293 17.9366C166.77 17.9366 167.038 18.2646 166.83 18.682C165.816 20.9776 163.64 22.1404 160.956 22.1404C156.604 22.1404 153.801 19.1292 153.801 15.1938C153.801 11.2882 156.693 8.24721 160.837 8.24721C164.683 8.24721 167.456 11.2286 167.456 15.1938C167.516 15.5516 167.486 15.8795 167.456 16.1776ZM160.867 11.7652C159.376 11.7652 158.363 12.4807 157.975 13.7926H163.61C163.163 12.3019 162 11.7652 160.867 11.7652ZM180.335 21.7826H177.712C177.294 21.7826 177.056 21.5441 177.056 21.1267V13.7926C177.056 12.4807 176.281 11.9143 175.297 11.9143C174.104 11.9143 173.389 12.5702 173.389 14.1205V21.1267C173.389 21.5441 173.15 21.7826 172.733 21.7826H170.109C169.692 21.7826 169.453 21.5441 169.453 21.1267V9.29069C169.453 8.87329 169.692 8.63478 170.109 8.63478H172.733C173.15 8.63478 173.389 8.87329 173.389 9.29069V9.82733C174.015 8.9031 175.118 8.24721 176.817 8.24721C179.262 8.24721 181.021 10.1255 181.021 13.4348V21.0969C180.991 21.5441 180.753 21.7826 180.335 21.7826ZM189.697 12.4211H188.266V21.1267C188.266 21.5441 188.027 21.7826 187.61 21.7826H184.986C184.569 21.7826 184.33 21.5441 184.33 21.1267V12.4211H182.899C182.482 12.4211 182.243 12.1826 182.243 11.7652V9.29069C182.243 8.87329 182.482 8.63478 182.899 8.63478H184.33V5.08696C184.33 4.66957 184.569 4.43105 184.986 4.43105H187.61C188.027 4.43105 188.266 4.66957 188.266 5.08696V8.63478H189.697C190.114 8.63478 190.353 8.87329 190.353 9.29069V11.7652C190.353 12.1826 190.114 12.4211 189.697 12.4211ZM201.265 12.9578H198.701C198.313 12.9578 198.164 12.7491 197.985 12.3913C197.806 11.9739 197.359 11.7056 196.763 11.7056C195.779 11.7056 195.361 12.0634 195.361 12.6C195.361 14.5379 202.219 12.7193 202.219 17.8472C202.219 20.8584 199.655 22.1702 196.763 22.1702C194.079 22.1702 191.665 20.9478 191.337 18.1752C191.277 17.7279 191.545 17.4894 191.963 17.4894H194.527C194.914 17.4894 195.063 17.6981 195.242 18.0559C195.451 18.5031 195.958 18.7714 196.733 18.7714C197.836 18.7714 198.253 18.4137 198.253 17.877C198.253 15.9988 191.396 17.7279 191.396 12.6298C191.396 9.64844 193.96 8.30683 196.733 8.30683C199.178 8.30683 201.563 9.5292 201.891 12.3019C201.95 12.7193 201.682 12.9578 201.265 12.9578Z" fill="white"/>
</svg>
